<mxfile host="app.diagrams.net" modified="2022-10-20T06:06:10.877Z" agent="5.0 (Macintosh; Intel Mac OS X 10_15_7) AppleWebKit/537.36 (KHTML, like Gecko) Chrome/106.0.0.0 Safari/537.36" etag="SCj0238oIcEWqyz1rIVC" version="20.4.1" type="github">
  <diagram id="lKZjIByiZlXPRpi-Botg" name="第 1 页">
    <mxGraphModel dx="1234" dy="692" grid="0" gridSize="10" guides="0" tooltips="1" connect="1" arrows="1" fold="1" page="0" pageScale="1" pageWidth="827" pageHeight="1169" background="none" math="0" shadow="0">
      <root>
        <mxCell id="0" />
        <mxCell id="1" parent="0" />
        <mxCell id="MG0zdi_hhvn_h3WvuUcr-1" value="" style="edgeStyle=none;orthogonalLoop=1;jettySize=auto;html=1;rounded=0;strokeWidth=2;dashed=1;strokeColor=#00CC00;" parent="1" edge="1">
          <mxGeometry width="80" relative="1" as="geometry">
            <mxPoint x="658" y="88" as="sourcePoint" />
            <mxPoint x="658" y="713" as="targetPoint" />
            <Array as="points" />
          </mxGeometry>
        </mxCell>
        <mxCell id="MG0zdi_hhvn_h3WvuUcr-6" style="edgeStyle=orthogonalEdgeStyle;rounded=0;orthogonalLoop=1;jettySize=auto;html=1;exitX=0.5;exitY=1;exitDx=0;exitDy=0;entryX=0.5;entryY=0;entryDx=0;entryDy=0;strokeWidth=2;" parent="1" source="MG0zdi_hhvn_h3WvuUcr-2" target="MG0zdi_hhvn_h3WvuUcr-4" edge="1">
          <mxGeometry relative="1" as="geometry" />
        </mxCell>
        <mxCell id="MG0zdi_hhvn_h3WvuUcr-2" value="regin hive" style="rounded=1;whiteSpace=wrap;html=1;" parent="1" vertex="1">
          <mxGeometry x="362.5" y="90" width="125" height="40" as="geometry" />
        </mxCell>
        <mxCell id="oHk_MaHtcIPB9RxffI-C-92" style="edgeStyle=orthogonalEdgeStyle;rounded=0;orthogonalLoop=1;jettySize=auto;html=1;exitX=0.5;exitY=1;exitDx=0;exitDy=0;entryX=0.5;entryY=0;entryDx=0;entryDy=0;strokeColor=#330000;strokeWidth=2;" edge="1" parent="1" source="MG0zdi_hhvn_h3WvuUcr-3" target="MG0zdi_hhvn_h3WvuUcr-18">
          <mxGeometry relative="1" as="geometry" />
        </mxCell>
        <mxCell id="MG0zdi_hhvn_h3WvuUcr-3" value="local maxwell kafka" style="rounded=1;whiteSpace=wrap;html=1;" parent="1" vertex="1">
          <mxGeometry x="823" y="111" width="125" height="40" as="geometry" />
        </mxCell>
        <mxCell id="MG0zdi_hhvn_h3WvuUcr-11" style="edgeStyle=orthogonalEdgeStyle;rounded=0;orthogonalLoop=1;jettySize=auto;html=1;exitX=0.5;exitY=1;exitDx=0;exitDy=0;entryX=0.5;entryY=0;entryDx=0;entryDy=0;strokeWidth=2;" parent="1" source="MG0zdi_hhvn_h3WvuUcr-4" target="MG0zdi_hhvn_h3WvuUcr-10" edge="1">
          <mxGeometry relative="1" as="geometry" />
        </mxCell>
        <mxCell id="MG0zdi_hhvn_h3WvuUcr-4" value="daily -&amp;gt;&amp;nbsp; 每日计算每种类型全量数据去重后的统计值，至少保存两天的结果" style="rounded=1;whiteSpace=wrap;html=1;" parent="1" vertex="1">
          <mxGeometry x="350" y="180" width="150" height="70" as="geometry" />
        </mxCell>
        <mxCell id="MG0zdi_hhvn_h3WvuUcr-28" style="edgeStyle=orthogonalEdgeStyle;rounded=0;orthogonalLoop=1;jettySize=auto;html=1;exitX=0.8;exitY=0.8;exitDx=0;exitDy=0;exitPerimeter=0;entryX=0.5;entryY=0;entryDx=0;entryDy=0;entryPerimeter=0;strokeColor=#FF3333;strokeWidth=2;" parent="1" source="MG0zdi_hhvn_h3WvuUcr-5" target="MG0zdi_hhvn_h3WvuUcr-16" edge="1">
          <mxGeometry relative="1" as="geometry" />
        </mxCell>
        <mxCell id="MG0zdi_hhvn_h3WvuUcr-5" value="s3" style="ellipse;shape=cloud;whiteSpace=wrap;html=1;" parent="1" vertex="1">
          <mxGeometry x="510" y="350" width="130" height="50" as="geometry" />
        </mxCell>
        <mxCell id="MG0zdi_hhvn_h3WvuUcr-13" style="edgeStyle=orthogonalEdgeStyle;rounded=0;orthogonalLoop=1;jettySize=auto;html=1;exitX=1;exitY=0.5;exitDx=0;exitDy=0;entryX=0.4;entryY=0.1;entryDx=0;entryDy=0;entryPerimeter=0;strokeWidth=2;strokeColor=#FF3333;" parent="1" source="MG0zdi_hhvn_h3WvuUcr-10" target="MG0zdi_hhvn_h3WvuUcr-5" edge="1">
          <mxGeometry relative="1" as="geometry" />
        </mxCell>
        <mxCell id="MG0zdi_hhvn_h3WvuUcr-10" value="daily -&amp;gt;&amp;nbsp; 最新一天的全量结果，发送到s3" style="rounded=1;whiteSpace=wrap;html=1;" parent="1" vertex="1">
          <mxGeometry x="350" y="300" width="150" height="40" as="geometry" />
        </mxCell>
        <mxCell id="MG0zdi_hhvn_h3WvuUcr-31" style="edgeStyle=orthogonalEdgeStyle;rounded=0;orthogonalLoop=1;jettySize=auto;html=1;exitX=1;exitY=0.5;exitDx=0;exitDy=0;exitPerimeter=0;entryX=0;entryY=0.5;entryDx=0;entryDy=0;strokeColor=#330000;strokeWidth=2;" parent="1" source="MG0zdi_hhvn_h3WvuUcr-16" target="MG0zdi_hhvn_h3WvuUcr-29" edge="1">
          <mxGeometry relative="1" as="geometry" />
        </mxCell>
        <mxCell id="MG0zdi_hhvn_h3WvuUcr-16" value="Hbase: A" style="shape=cylinder3;whiteSpace=wrap;html=1;boundedLbl=1;backgroundOutline=1;size=15;" parent="1" vertex="1">
          <mxGeometry x="665" y="415" width="100" height="70" as="geometry" />
        </mxCell>
        <mxCell id="oHk_MaHtcIPB9RxffI-C-93" style="edgeStyle=orthogonalEdgeStyle;rounded=0;orthogonalLoop=1;jettySize=auto;html=1;exitX=0.5;exitY=1;exitDx=0;exitDy=0;strokeColor=#330000;strokeWidth=2;" edge="1" parent="1" source="MG0zdi_hhvn_h3WvuUcr-18" target="MG0zdi_hhvn_h3WvuUcr-24">
          <mxGeometry relative="1" as="geometry" />
        </mxCell>
        <mxCell id="oHk_MaHtcIPB9RxffI-C-95" style="edgeStyle=orthogonalEdgeStyle;rounded=0;orthogonalLoop=1;jettySize=auto;html=1;exitX=0.5;exitY=1;exitDx=0;exitDy=0;entryX=0.5;entryY=0;entryDx=0;entryDy=0;entryPerimeter=0;strokeColor=#330000;strokeWidth=2;" edge="1" parent="1" source="MG0zdi_hhvn_h3WvuUcr-18" target="oHk_MaHtcIPB9RxffI-C-94">
          <mxGeometry relative="1" as="geometry" />
        </mxCell>
        <mxCell id="oHk_MaHtcIPB9RxffI-C-97" style="edgeStyle=orthogonalEdgeStyle;rounded=0;orthogonalLoop=1;jettySize=auto;html=1;exitX=0.5;exitY=1;exitDx=0;exitDy=0;strokeColor=#330000;strokeWidth=2;" edge="1" parent="1" source="MG0zdi_hhvn_h3WvuUcr-18" target="oHk_MaHtcIPB9RxffI-C-96">
          <mxGeometry relative="1" as="geometry" />
        </mxCell>
        <mxCell id="MG0zdi_hhvn_h3WvuUcr-18" value="flink -&amp;gt;&amp;nbsp; 按日期聚合，定时N秒触发输出，并形成临时视图viewA，并将user_id, day下发至kafka" style="rounded=1;whiteSpace=wrap;html=1;" parent="1" vertex="1">
          <mxGeometry x="805" y="171" width="160" height="70" as="geometry" />
        </mxCell>
        <mxCell id="MG0zdi_hhvn_h3WvuUcr-30" style="edgeStyle=orthogonalEdgeStyle;rounded=0;orthogonalLoop=1;jettySize=auto;html=1;exitX=0.5;exitY=1;exitDx=0;exitDy=0;exitPerimeter=0;strokeColor=#330000;strokeWidth=2;" parent="1" source="MG0zdi_hhvn_h3WvuUcr-24" target="MG0zdi_hhvn_h3WvuUcr-29" edge="1">
          <mxGeometry relative="1" as="geometry" />
        </mxCell>
        <mxCell id="MG0zdi_hhvn_h3WvuUcr-24" value="kafka" style="strokeWidth=2;html=1;shape=mxgraph.flowchart.direct_data;whiteSpace=wrap;" parent="1" vertex="1">
          <mxGeometry x="722" y="292" width="100" height="60" as="geometry" />
        </mxCell>
        <mxCell id="MG0zdi_hhvn_h3WvuUcr-35" style="edgeStyle=orthogonalEdgeStyle;rounded=0;orthogonalLoop=1;jettySize=auto;html=1;exitX=0.5;exitY=1;exitDx=0;exitDy=0;entryX=0.5;entryY=0;entryDx=0;entryDy=0;entryPerimeter=0;strokeColor=#330000;strokeWidth=2;" parent="1" source="MG0zdi_hhvn_h3WvuUcr-29" target="MG0zdi_hhvn_h3WvuUcr-34" edge="1">
          <mxGeometry relative="1" as="geometry" />
        </mxCell>
        <mxCell id="MG0zdi_hhvn_h3WvuUcr-36" style="edgeStyle=orthogonalEdgeStyle;rounded=0;orthogonalLoop=1;jettySize=auto;html=1;exitX=0.5;exitY=1;exitDx=0;exitDy=0;entryX=0.5;entryY=0;entryDx=0;entryDy=0;entryPerimeter=0;strokeColor=#330000;strokeWidth=2;" parent="1" source="MG0zdi_hhvn_h3WvuUcr-29" target="MG0zdi_hhvn_h3WvuUcr-33" edge="1">
          <mxGeometry relative="1" as="geometry" />
        </mxCell>
        <mxCell id="MG0zdi_hhvn_h3WvuUcr-29" value="flink -&amp;gt;&amp;nbsp; 根据user_id查询ViewA视图，取上游用户在视图A的所有数据，再join HbaseA, 取viewA日期大于Hbase A的所有数据， 取sum值" style="rounded=1;whiteSpace=wrap;html=1;" parent="1" vertex="1">
          <mxGeometry x="810" y="405" width="168" height="90" as="geometry" />
        </mxCell>
        <mxCell id="MG0zdi_hhvn_h3WvuUcr-33" value="Hbase: B" style="shape=cylinder3;whiteSpace=wrap;html=1;boundedLbl=1;backgroundOutline=1;size=15;" parent="1" vertex="1">
          <mxGeometry x="927.5" y="540" width="100" height="70" as="geometry" />
        </mxCell>
        <mxCell id="MG0zdi_hhvn_h3WvuUcr-34" value="UTP" style="shape=cylinder3;whiteSpace=wrap;html=1;boundedLbl=1;backgroundOutline=1;size=15;" parent="1" vertex="1">
          <mxGeometry x="742.5" y="540" width="100" height="70" as="geometry" />
        </mxCell>
        <mxCell id="oHk_MaHtcIPB9RxffI-C-98" style="edgeStyle=orthogonalEdgeStyle;rounded=0;orthogonalLoop=1;jettySize=auto;html=1;exitX=1;exitY=0.5;exitDx=0;exitDy=0;exitPerimeter=0;entryX=1;entryY=0.5;entryDx=0;entryDy=0;strokeColor=#3333FF;strokeWidth=2;" edge="1" parent="1" source="oHk_MaHtcIPB9RxffI-C-94" target="MG0zdi_hhvn_h3WvuUcr-29">
          <mxGeometry relative="1" as="geometry">
            <Array as="points">
              <mxPoint x="1008" y="323" />
              <mxPoint x="1008" y="450" />
            </Array>
          </mxGeometry>
        </mxCell>
        <mxCell id="oHk_MaHtcIPB9RxffI-C-94" value="viewA" style="strokeWidth=2;html=1;shape=mxgraph.flowchart.direct_data;whiteSpace=wrap;" vertex="1" parent="1">
          <mxGeometry x="871" y="293" width="100" height="60" as="geometry" />
        </mxCell>
        <mxCell id="oHk_MaHtcIPB9RxffI-C-96" value="Hbase: B" style="shape=cylinder3;whiteSpace=wrap;html=1;boundedLbl=1;backgroundOutline=1;size=15;" vertex="1" parent="1">
          <mxGeometry x="1036" y="288" width="100" height="70" as="geometry" />
        </mxCell>
      </root>
    </mxGraphModel>
  </diagram>
</mxfile>
